<svg version="1.0" xmlns="http://www.w3.org/2000/svg" width="300px" height="300px" viewBox="0 0 300 300" preserveAspectRatio="xMidYMid meet">
 <g fill="#272636">
  
 </g>
 <g fill="#c79231">
  <path d="M105.40 218.65 c-0.95 -0.25 -1.15 -1.45 -0.45 -2.60 0.40 -0.60 0.55 -0.45 0.85 0.65 0.25 1.10 0.55 1.35 1.65 1.20 0.90 -0.10 1.30 -0.45 1.25 -1 -0.05 -0.55 0.25 -0.90 0.85 -0.90 1.20 0 1.30 2.25 0.15 2.70 -0.85 0.35 -2.95 0.30 -4.30 -0.05z" data-index="1"></path>
  <path d="M191.50 214.95 c0 -0.85 -0.20 -1.40 -0.50 -1.20 -0.70 0.45 -0.65 -0.40 0.10 -1.15 0.70 -0.70 2.20 -0.80 2.60 -0.20 0.15 0.25 0 1.25 -0.30 2.25 -0.70 2.25 -1.90 2.45 -1.90 0.30z" data-index="2"></path>
  <path d="M194.05 216.15 c0 -0.25 0.35 -1.20 0.70 -2.15 0.70 -1.85 1 -0.80 0.45 1.40 -0.30 1 -1.25 1.60 -1.15 0.75z" data-index="3"></path>
  <path d="M126.50 129.60 c0 -15.65 -0.15 -28.55 -0.30 -28.75 -0.20 -0.15 -0.95 0 -1.75 0.45 -1.45 0.70 -1.45 0.70 -1.45 -0.75 0 -0.80 0.30 -1.55 0.75 -1.75 0.40 -0.15 0.75 -0.60 0.75 -1.05 0 -0.55 0.55 -0.75 2 -0.75 l2 0 0.05 11.40 c0.05 6.25 0.15 18.55 0.25 27.35 0.25 19 0.05 22.25 -1.35 22.25 -0.95 0 -0.95 -0.75 -0.95 -28.40z" data-index="4"></path>
  <path d="M111 109 c0 -1 0.25 -1.50 0.75 -1.50 0.45 0 0.75 -0.45 0.75 -1.25 0 -1.20 0.15 -1.25 2.75 -1.25 1.50 0 2.75 0.15 2.75 0.40 -0.05 0.20 -1.60 1.40 -3.50 2.75 l-3.50 2.35 0 -1.50z" data-index="5"></path>
  <path d="M104 107 c0 -0.40 4.25 -3.55 10.10 -7.50 1 -0.70 5.10 -3.55 9.10 -6.35 l7.30 -5.10 0 1.75 c0 1.40 -0.25 1.85 -1.35 2.35 -0.80 0.30 -1.60 0.85 -1.80 1.20 -0.20 0.35 -0.70 0.65 -1.10 0.65 -0.35 0 -0.75 0.20 -0.85 0.45 -0.15 0.45 -8.75 6.55 -9.20 6.55 -0.15 0 -0.85 0.55 -1.60 1.30 -0.75 0.70 -1.95 1.40 -2.70 1.55 -0.80 0.15 -1.40 0.55 -1.40 0.90 0 0.40 -0.65 0.95 -1.50 1.35 -0.80 0.35 -1.50 0.80 -1.50 1 0 0.25 -0.80 0.40 -1.75 0.40 -0.95 0 -1.75 -0.20 -1.75 -0.50z" data-index="6"></path>
  <path d="M132.50 87.05 c0 -0.25 1.85 -1.75 4.15 -3.25 3.75 -2.55 4.10 -2.70 4.25 -1.75 0.25 1.45 -0.25 2.45 -1.15 2.45 -0.45 0 -1.45 0.70 -2.25 1.50 -1.10 1.10 -1.95 1.50 -3.25 1.50 -0.95 0 -1.75 -0.20 -1.75 -0.45z" data-index="7"></path>
  <path d="M146 77.55 c0 -0.25 1.15 -1.15 2.50 -2 l2.50 -1.55 0 1.50 c0 0.95 -0.35 1.65 -0.95 2 -1.20 0.60 -4.05 0.65 -4.05 0.05z" data-index="8"></path>
  <path d="M156 73 c0 -0.25 -0.45 -0.50 -1 -0.50 -1.40 0 -1.25 -0.65 0.40 -1.80 2.60 -1.90 2.60 -1.90 2.60 0.50 0 1.95 -0.15 2.30 -1 2.30 -0.55 0 -1 -0.20 -1 -0.50z" data-index="9"></path>
 </g>
 <g fill="#f89106">
  <path d="M194.35 157.65 c-0.20 -0.15 -0.35 -0.75 -0.35 -1.25 0 -0.70 -0.40 -0.90 -2 -0.90 -1.80 0 -2 -0.10 -2 -1.25 0 -0.80 -0.30 -1.25 -0.75 -1.25 -0.40 0 -0.75 -0.35 -0.75 -0.75 0 -0.40 0.35 -0.75 0.75 -0.75 0.40 0 0.75 -0.15 0.75 -0.35 0 -0.25 0.05 -7.05 0.10 -15.15 l0.05 -14.75 -3.30 -0.15 c-2.55 -0.10 -3.35 -0.30 -3.35 -0.85 0 -0.40 -0.20 -0.75 -0.40 -0.75 -0.25 0 -0.80 -0.80 -1.25 -1.75 -0.45 -0.95 -1.15 -1.75 -1.60 -1.75 -0.40 0 -0.75 -0.45 -0.75 -1 0 -0.90 0.40 -1 5.35 -1.10 l5.30 -0.15 -0.05 -9.20 -0.05 -9.25 -7.80 -4.05 c-4.35 -2.25 -8.05 -4.40 -8.30 -4.80 -0.25 -0.40 -0.45 -1.30 -0.45 -2.05 0 -0.75 -0.25 -1.50 -0.50 -1.65 -0.55 -0.35 -0.70 -3.90 -0.20 -4.40 0.15 -0.15 1 0.15 1.85 0.60 0.90 0.50 6.25 3.35 11.95 6.30 l10.40 5.40 0.10 30.30 0.15 30.30 6.25 0.10 6.25 0.05 0.15 3.30 0.15 3.30 -7.70 0 c-4.20 0 -7.85 -0.15 -8 -0.35z" data-index="10" style="opacity: 1;"></path>
 </g>
 <g fill="#ed9514">
  <path d="M167.30 156.90 c-0.55 -2.20 -0.35 -4.40 0.45 -4.40 0.40 0 0.75 -0.20 0.75 -0.50 0 -0.30 4 -0.50 11.05 -0.50 l11.05 0 -0.30 -3.50 c-0.15 -1.95 -0.10 -3.40 0.15 -3.30 0.25 0.15 0.55 -0.15 0.70 -0.70 0.30 -1.10 -0.40 -1.40 -0.80 -0.35 -0.15 0.30 -0.30 0 -0.30 -0.75 -0.05 -0.70 0.25 -1.40 0.55 -1.50 0.85 -0.30 2 3.10 1.35 3.90 -0.65 0.80 0.65 1.90 1.40 1.15 0.40 -0.40 0.65 -0.35 0.90 0.05 0.20 0.35 0.15 0.75 -0.10 0.95 -0.80 0.50 -0.45 4.45 0.45 5.15 0.45 0.35 0.95 1.70 1.15 3.05 l0.30 2.35 -14.20 0 -14.25 0 -0.30 -1.10z" data-index="11" style="opacity: 1;"></path>
  <path d="M197.90 151.65 c0.60 -0.10 1.60 -0.10 2.25 0 0.60 0.10 0.10 0.20 -1.15 0.20 -1.25 0 -1.75 -0.10 -1.10 -0.20z" data-index="12"></path>
  <path d="M164.60 117.65 l0.15 -3.40 7.25 -0.15 c9.25 -0.20 10.25 0 11.30 2.05 0.45 0.90 1 1.70 1.20 1.85 0.40 0.25 0.65 1.30 0.55 2.40 -0.05 0.45 -2.45 0.60 -10.30 0.60 l-10.30 0 0.15 -3.35z" data-index="13"></path>
  <path d="M153.85 109.15 c-0.15 -1.85 -0.50 -3.45 -0.80 -3.55 -0.30 -0.10 -0.55 -0.60 -0.55 -1.15 0 -0.50 -0.35 -0.95 -0.75 -0.95 -0.65 0 -0.75 -1.45 -0.75 -10 0 -6.90 -0.15 -10 -0.55 -10 -0.30 0 -1.15 0.40 -1.85 0.90 -2.80 1.95 -2.70 2 -2.35 -1.60 l0.35 -3.30 -1.30 0 c-0.70 0 -1.30 -0.20 -1.30 -0.40 0 -0.50 2.75 -2.60 3.40 -2.60 0.25 0 2 -1.25 3.90 -2.75 1.90 -1.50 3.75 -2.75 4.10 -2.75 0.30 0 0.60 -0.20 0.60 -0.50 0 -1.25 1.40 -0.35 1.70 1.05 0.15 0.85 0.30 10.45 0.30 21.25 l0 19.70 -1.95 0 -1.90 0 -0.30 -3.35z" data-index="14"></path>
  <path d="M176.50 88 c-0.40 -0.25 -0.55 -0.60 -0.35 -0.80 0.20 -0.20 0.65 -0.10 0.95 0.20 0.75 0.75 0.35 1.20 -0.60 0.60z" data-index="15"></path>
  <path d="M169.65 84.70 l-5.15 -2.80 0 -3.95 c0 -2.15 0.15 -3.95 0.40 -3.95 0.20 0 2.40 1.10 4.85 2.45 2.50 1.35 7.25 3.80 10.65 5.50 3.35 1.70 6.10 3.20 6.10 3.30 0 0.10 -1.60 -0.45 -3.55 -1.25 -1.95 -0.85 -3.75 -1.40 -3.95 -1.25 -0.25 0.15 -0.50 0 -0.60 -0.30 -0.20 -0.65 -4.40 -2.55 -4.40 -2 0 0.65 1.30 1.60 1.65 1.20 0.20 -0.15 0.35 0.05 0.35 0.50 0 0.45 -0.20 0.90 -0.45 1.05 -0.25 0.15 -0.35 1.20 -0.20 2.30 0.15 1.10 0.10 2 -0.15 2 -0.25 -0.05 -2.75 -1.30 -5.55 -2.80z" data-index="16"></path>
 </g>
 <g fill="#df9721">
  <path d="M151.05 124 c0.05 -19.30 0.25 -34 0.50 -34 0.25 0 0.45 1.65 0.45 3.65 0 3.40 0.75 6.35 1.65 6.35 0.20 0 0.35 0.90 0.35 2 0 1.10 0.25 2 0.50 2 0.30 0 0.50 0.45 0.50 0.95 0 0.55 0.20 1.15 0.50 1.30 0.30 0.15 0.50 -0.15 0.50 -0.65 0 -0.55 0.45 -1.10 0.95 -1.25 0.90 -0.20 0.95 0.05 0.95 3.10 0 1.80 0 12.45 0.05 23.70 l0.05 20.35 9.90 0.10 c5.40 0.05 8.60 0.15 7.10 0.25 -3.85 0.20 -5 0.55 -5 1.40 0 0.40 -0.35 0.75 -0.80 0.75 -0.90 0 -0.50 1.90 0.60 2.80 0.40 0.30 0.70 0.70 0.70 0.90 0 0.15 -4.40 0.30 -9.75 0.30 l-9.80 0 0.10 -34z m6.45 -14.05 c0 -0.25 -0.45 -0.45 -1 -0.45 -0.55 0 -1 0.30 -1 0.70 0 0.45 0.35 0.60 1 0.45 0.55 -0.15 1 -0.45 1 -0.70z" data-index="17" style="opacity: 1;"></path>
  <path d="M164.80 118 c0.05 -4.15 0.70 -4.45 0.70 -0.35 0 1.85 -0.20 3.35 -0.40 3.35 -0.20 0 -0.35 -1.35 -0.30 -3z" data-index="18"></path>
  <path d="M131.50 113.25 c0 -0.40 -0.35 -0.75 -0.75 -0.75 -0.55 0 -0.75 -0.60 -0.75 -2.50 0 -1.80 -0.20 -2.50 -0.70 -2.50 -0.80 0 -1.30 -2.15 -1.30 -5.80 0 -1.80 -0.20 -2.75 -0.60 -2.80 -0.35 0 -1 -0.05 -1.40 -0.10 -0.50 -0.05 -0.90 -0.90 -1.15 -2.85 -0.40 -2.60 -0.35 -2.90 0.85 -4.20 0.70 -0.75 1.30 -1.20 1.30 -1 0 0.25 0.35 0 0.80 -0.55 0.40 -0.50 0.60 -0.60 0.45 -0.20 -0.20 0.40 0.15 0.15 0.80 -0.55 1.40 -1.50 4.35 -3.65 5.35 -3.75 0.35 -0.10 1.25 -0.70 1.95 -1.40 0.70 -0.70 1.60 -1.30 1.95 -1.30 0.35 0 0.85 -0.30 1.05 -0.70 0.50 -0.85 5.35 -4.30 6.05 -4.30 0.25 0 0.60 -0.35 0.80 -0.75 0.15 -0.40 0.50 -0.70 0.75 -0.65 0.25 0.10 1.80 -0.85 3.40 -2.05 l2.90 -2.15 -2.75 2.45 -2.75 2.50 0.20 2.95 c0.10 2.15 0.30 2.65 0.65 2.05 0.60 -1.15 1.75 -1.10 2.40 0.10 0.70 1.30 0.65 1.55 -0.20 1.25 -0.70 -0.25 -2.75 0.55 -3.30 1.30 -0.25 0.30 -8.35 5.95 -12.10 8.45 l-1.90 1.25 0 9.65 c0 9.30 -0.05 9.65 -1 9.65 -0.55 0 -1 -0.35 -1 -0.75z" data-index="19"></path>
 </g>
 <g fill="#d79d2f">
  <path d="M127.10 141.65 c0 -34.70 -0.10 -43.15 -0.60 -43.15 -0.25 0 -0.50 0.30 -0.50 0.65 0 0.80 -1.35 1.95 -6.10 5.15 -2.80 1.90 -4.15 2.55 -5 2.35 -0.90 -0.25 -1.05 -0.15 -0.55 0.35 0.45 0.50 0.15 0.95 -1.50 2.15 -1.15 0.85 -2.35 1.90 -2.70 2.30 -0.55 0.70 -0.60 0.65 -0.65 -0.30 0 -0.65 -0.20 -1.15 -0.50 -1.15 -0.85 0 -0.60 -5.65 0.30 -6.90 0.40 -0.60 1 -1 1.25 -0.85 0.25 0.20 0.45 0.05 0.45 -0.25 0 -0.30 0.20 -0.45 0.45 -0.25 0.25 0.15 0.80 -0.20 1.20 -0.75 0.35 -0.55 0.85 -0.85 1 -0.65 0.20 0.15 0.35 0.05 0.35 -0.25 0 -0.35 0.30 -0.60 0.65 -0.60 0.35 0 1.35 -0.65 2.25 -1.45 0.85 -0.85 1.60 -1.35 1.60 -1.15 0 0.20 0.50 -0.20 1.05 -0.90 0.55 -0.70 0.85 -0.90 0.65 -0.50 -0.20 0.40 0.50 0.10 1.60 -0.75 1.05 -0.80 2.05 -1.65 2.10 -1.85 0.10 -0.20 0.50 -0.40 0.85 -0.40 0.40 0 1 -0.50 1.30 -1.10 l0.60 -1.15 0.55 1.20 c0.40 0.95 0.35 1.30 -0.35 1.80 -0.75 0.55 -0.70 0.65 0.40 1.25 1.55 0.85 1.60 1.30 0.15 1.70 -1.35 0.35 -0.70 1.15 1.10 1.40 1.10 0.15 1.25 0.35 1.15 2.15 -0.20 3.30 0.35 6.25 1.15 6.25 0.50 0 0.70 0.65 0.70 2.50 0 1.80 0.20 2.50 0.70 2.50 0.35 0 0.80 0.50 1 1.15 0.15 0.60 0.30 11.15 0.30 23.50 l0 22.35 -3.20 0 -3.20 0 0 -16.35z" data-index="20"></path>
  <path d="M133.10 105.50 c0 -0.95 0.10 -1.35 0.25 -0.85 0.10 0.45 0.10 1.25 0 1.75 -0.15 0.45 -0.25 0.05 -0.25 -0.90z" data-index="21"></path>
  <path d="M131.50 101 c0 -1.15 0.25 -1.50 0.95 -1.50 0.75 0 0.95 0.35 0.95 1.50 -0.05 1.10 -0.30 1.50 -1 1.50 -0.65 0 -0.90 -0.35 -0.90 -1.50z" data-index="22"></path>
  <path d="M130 94 c0 -0.65 0.25 -1 0.65 -0.85 0.30 0.10 0.60 0.50 0.60 0.85 0 0.35 -0.30 0.75 -0.60 0.90 -0.40 0.10 -0.65 -0.25 -0.65 -0.90z" data-index="23"></path>
 </g>
 <g fill="#cf9f39">
  <path d="M106.10 156.95 c-0.35 -0.55 -0.85 -2.30 -1.10 -3.85 -0.25 -1.50 -0.75 -2.95 -1.05 -3.15 -0.40 -0.25 -0.60 -6.10 -0.70 -21.15 -0.15 -20.10 -0.10 -20.85 0.85 -22.05 0.55 -0.70 1.15 -1.15 1.40 -1 0.20 0.15 0.55 -0.10 0.70 -0.55 0.15 -0.40 0.50 -0.65 0.75 -0.50 0.25 0.15 0.95 -0.25 1.60 -0.85 1.35 -1.30 2.95 -2.05 2.95 -1.40 0 0.25 -0.35 0.55 -0.70 0.70 -0.55 0.20 -0.75 1.05 -0.70 2.80 0.05 2.70 0.70 3.20 2.10 1.80 0.80 -0.85 2.30 -1 2.30 -0.30 0 0.25 -0.80 0.95 -1.75 1.55 -0.95 0.60 -2 1.50 -2.25 2.05 -0.35 0.60 -0.50 9.20 -0.50 23.80 l0.05 22.90 -1.65 0.15 c-1.25 0.10 -1.80 -0.10 -2.30 -0.95z" data-index="24"></path>
  <path d="M127.10 151 c0 -0.95 0.10 -1.35 0.25 -0.85 0.10 0.45 0.10 1.25 0 1.75 -0.15 0.45 -0.25 0.05 -0.25 -0.90z" data-index="25"></path>
 </g>
 <g fill="#c6a141">
  <path d="M105.65 218.60 c-1.20 -0.20 -1.50 -1.30 -0.65 -2.60 0.40 -0.65 0.50 -0.65 0.50 0.10 0 0.45 0.35 1.20 0.80 1.65 0.95 0.95 0.85 1.10 -0.65 0.85z" data-index="26"></path>
  <path d="M108.75 217.85 c0.25 -0.85 -0.05 -1.65 -0.95 -2.70 -1.90 -2.25 -1.55 -5.15 0.65 -5.15 0.55 0 0.55 0.20 -0.15 0.95 -0.80 0.90 -0.80 1.05 0.65 2.70 1.80 2 2 4.05 0.55 4.85 -0.95 0.50 -1 0.45 -0.75 -0.65z" data-index="27"></path>
  <path d="M114 218.15 c0.05 -0.50 0.35 -1.75 0.70 -2.75 0.40 -1.05 0.45 -1.75 0.20 -1.60 -0.30 0.20 -0.40 -0.10 -0.30 -0.60 0.10 -0.55 0.65 -1 1.35 -1.10 1.15 -0.20 1.20 -0.10 0.80 1.75 -0.20 1.05 -0.40 2.60 -0.40 3.40 -0.10 1.15 -0.35 1.55 -1.20 1.65 -0.85 0.15 -1.15 -0.10 -1.15 -0.75z" data-index="28"></path>
  <path d="M120.05 218.05 c-0.65 -1.15 0.10 -4.10 1.35 -5.15 0.90 -0.85 4.10 -0.70 4.10 0.15 0 0.85 -1.60 1.10 -2.05 0.40 -0.65 -1.05 -1.50 0.10 -1.80 2.50 -0.30 2.15 0.45 2.75 1.75 1.45 0.35 -0.35 0.60 -0.40 0.60 -0.10 0 1.70 -3.15 2.30 -3.95 0.75z" data-index="29"></path>
  <path d="M127.20 218.20 c0.90 -2.35 2.25 -8.75 2 -9.40 -0.25 -0.60 0 -0.80 1.05 -0.80 1.20 0 1.30 0.15 1.05 1.15 -0.20 0.60 -0.45 1.80 -0.60 2.60 -0.15 0.85 -0.60 2.80 -1.05 4.40 -0.65 2.20 -1 2.85 -1.80 2.85 -0.65 0 -0.85 -0.25 -0.65 -0.80z" data-index="30"></path>
  <path d="M130.75 217.15 c0.20 -1.05 0.40 -2.55 0.50 -3.40 0.05 -1.15 0.35 -1.55 1.25 -1.65 1.05 -0.15 1.10 -0.05 0.85 1.50 -0.15 0.90 -0.45 2.20 -0.65 2.85 -0.25 0.85 -0.20 1.10 0.20 0.85 0.35 -0.20 0.60 -0.15 0.60 0.05 0 0.75 -1.15 1.65 -2.15 1.65 -0.85 0 -0.95 -0.25 -0.60 -1.85z" data-index="31"></path>
  <path d="M136.35 218.05 c-0.65 -2.60 1.55 -6.05 3.90 -6.05 1.95 0 1.65 1.80 -0.50 3.05 -1 0.60 -1.75 1.45 -1.75 2 0 1.05 1 1.25 1.90 0.35 0.35 -0.35 0.60 -0.40 0.60 -0.10 0 1.75 -3.70 2.40 -4.15 0.75z m3.35 -3.85 c0.45 -1.10 -0.15 -1.60 -0.70 -0.70 -0.60 0.95 -0.60 1.50 -0.05 1.50 0.25 0 0.60 -0.35 0.75 -0.80z" data-index="32"></path>
  <path d="M144.25 217.65 c0.20 -0.75 0.55 -2.05 0.75 -2.80 0.30 -0.95 0.30 -1.30 -0.05 -1.05 -0.35 0.20 -0.45 -0.05 -0.35 -0.60 0.10 -0.75 0.65 -0.95 2.55 -1.05 1.75 -0.10 2.35 0.05 2.35 0.60 0 1 -1 1.45 -1.65 0.80 -0.45 -0.45 -0.80 0.15 -1.40 2.30 -0.50 1.90 -1.05 2.95 -1.65 3.05 -0.70 0.15 -0.80 -0.10 -0.55 -1.25z" data-index="33"></path>
  <path d="M151.40 217.90 c-0.45 -2.90 1.50 -5.90 3.85 -5.90 2.25 0 1.25 2.70 -1.35 3.65 -0.50 0.20 -0.90 0.80 -0.90 1.40 0 0.90 0.20 1 1.35 0.70 1.15 -0.25 1.25 -0.20 0.70 0.45 -0.40 0.45 -1.30 0.80 -2.10 0.80 -1.05 0 -1.40 -0.25 -1.55 -1.10z m3.30 -3.70 c0.45 -1.10 -0.15 -1.60 -0.70 -0.70 -0.60 0.95 -0.60 1.50 -0.05 1.50 0.25 0 0.60 -0.35 0.75 -0.80z" data-index="34"></path>
  <path d="M159 218.80 c0 -0.15 0.20 -0.75 0.45 -1.40 0.20 -0.65 0.55 -1.80 0.75 -2.65 0.25 -1.15 0.20 -1.30 -0.20 -0.75 -0.45 0.60 -0.50 0.50 -0.40 -0.50 0.15 -1.15 0.40 -1.25 2.55 -1.30 2.60 -0.10 3.40 0.45 1.85 1.30 -0.55 0.30 -1 0.35 -1 0.15 0 -0.90 -1.05 1.25 -1.55 3.25 -0.40 1.55 -0.80 2.10 -1.50 2.10 -0.55 0 -0.95 -0.10 -0.95 -0.20z" data-index="35"></path>
  <path d="M172.25 217.65 c0.35 -0.80 0.95 -2.80 1.30 -4.55 l0.60 -3.15 2.25 0.15 c3 0.20 3.80 1.35 2.10 3.15 -1.15 1.20 -1.15 1.35 -0.35 1.80 0.45 0.30 0.85 0.85 0.85 1.20 0 1.15 -1.85 2.75 -3.10 2.70 l-1.15 0 1.15 -0.80 c1.35 -0.95 1.45 -2.45 0.10 -3.15 -0.85 -0.45 -1 -0.35 -1.35 0.85 -0.15 0.80 -0.30 1.80 -0.25 2.30 0 0.60 -0.35 0.85 -1.40 0.85 -1.40 0 -1.40 -0.05 -0.75 -1.35z m4.65 -4.25 c0.75 -0.75 0.80 -2.25 0.05 -2.65 -0.70 -0.45 -0.90 -0.20 -1.45 1.70 -0.45 1.65 0.20 2.15 1.40 0.95z" data-index="36"></path>
  <path d="M181.70 218.25 c-0.40 -1.05 0.20 -3.20 1.35 -4.85 0.80 -1.10 1.40 -1.40 2.80 -1.40 1.75 0 1.75 0.05 1.50 1.65 -0.20 0.85 -0.45 2.15 -0.65 2.80 -0.25 0.90 -0.20 1.10 0.25 0.80 0.45 -0.25 0.60 -0.10 0.45 0.55 -0.10 0.60 -0.65 1 -1.60 1.10 -1.30 0.15 -1.40 0.05 -1.15 -1.25 0.10 -0.75 0.45 -2.15 0.75 -3 0.45 -1.35 0.40 -1.65 -0.20 -1.65 -1 0 -1.85 2.40 -1.50 4.40 0.20 1.35 0.10 1.60 -0.75 1.60 -0.55 0 -1.10 -0.35 -1.25 -0.75z" data-index="37"></path>
  <path d="M190.80 218.55 c-0.15 -0.25 0.05 -1.50 0.40 -2.80 0.40 -1.30 0.60 -2.65 0.45 -3.05 -0.15 -0.45 0.10 -0.70 0.70 -0.70 1.50 0 1.60 0.35 0.85 2.85 -0.40 1.30 -0.60 2.75 -0.40 3.25 0.20 0.65 0 0.90 -0.75 0.90 -0.55 0 -1.10 -0.20 -1.25 -0.45z" data-index="38"></path>
  <path d="M193.50 218.45 c0 -1.40 1.75 -6.10 2.40 -6.30 1.10 -0.45 1.20 0.15 0.40 2.80 -0.45 1.50 -0.55 2.45 -0.25 2.25 0.35 -0.20 0.45 0.05 0.35 0.60 -0.20 1.10 -2.90 1.70 -2.90 0.65z" data-index="39"></path>
  <path d="M109.85 210.75 c-0.25 -0.55 0 -0.75 0.95 -0.75 0.80 0 1.20 0.25 1.10 0.65 -0.35 0.90 -1.75 1 -2.05 0.10z" data-index="40"></path>
  <path d="M116.35 210.65 c-0.20 -0.15 -0.35 -0.60 -0.35 -1 0 -0.75 1.30 -0.90 1.70 -0.20 0.35 0.55 -0.90 1.65 -1.35 1.20z" data-index="41"></path>
  <path d="M90 154.75 l0 -3.25 6.50 0 c7.55 0 7.20 0.30 6.90 -5.95 -0.15 -3.80 0.25 -4.45 1.85 -3.20 0.60 0.45 0.75 0.85 0.45 0.95 -0.30 0.15 -0.45 0.80 -0.30 1.55 0.15 0.90 0.05 1.20 -0.35 0.95 -0.45 -0.30 -0.50 0 -0.25 1.05 0.20 0.75 0.55 1.50 0.80 1.55 0.20 0.10 0.40 0.50 0.40 0.90 0 0.40 0.25 0.70 0.50 0.70 0.30 0 0.45 1 0.40 2.25 0 1.25 0.20 2.55 0.50 2.85 0.45 0.45 0.60 0.45 0.60 0.05 0 -0.35 0.45 -0.45 1.10 -0.25 l1.10 0.25 -1.05 0.40 c-0.75 0.30 -1 0.70 -0.80 1.40 0.25 1.05 0.10 1.05 -9.05 1.05 l-9.30 0 0 -3.25z" data-index="42"></path>
 </g>
 <g fill="#fbfbfb">
  <path d="M130.95 202.25 c-0.95 -0.35 -4.15 -1.80 -7.10 -3.20 -2.90 -1.40 -5.65 -2.55 -6.05 -2.55 -0.40 0 -1.05 -0.15 -1.45 -0.30 -0.65 -0.25 -0.65 -0.40 0.20 -1.25 0.85 -0.85 0.95 -1.75 0.95 -9.05 0 -7.60 -0.05 -8.15 -1.10 -9.25 l-1.05 -1.15 4.40 0 c4.05 0 4.35 0.05 3.45 0.75 -1 0.65 -1.05 1.20 -1.15 9.90 -0.10 7.05 0.05 9.30 0.55 9.70 0.75 0.60 8.40 2.85 12.60 3.65 2.80 0.60 7.05 0.35 7.50 -0.40 0.15 -0.20 -0.45 -1.35 -1.25 -2.60 -0.80 -1.20 -1.70 -3.05 -2.05 -4.10 l-0.55 -1.90 -3.35 0 -3.35 0 -0.80 2.05 c-0.70 1.70 -0.70 2.05 -0.05 2.30 1.65 0.65 0.45 1.15 -2.65 1.15 l-3.40 0 1.65 -1 c0.85 -0.55 1.60 -1.20 1.60 -1.50 0 -0.25 0.55 -1.65 1.20 -3.10 4.75 -10.60 4.85 -10.85 4.05 -12.40 -0.85 -1.65 -3 -2.90 -4.50 -2.65 -1 0.20 -1 0.20 -0.05 -0.60 0.60 -0.45 2 -0.75 3.40 -0.75 1.95 0 2.70 0.30 4.15 1.55 2.20 1.95 2.50 2.50 6.30 11.80 4.25 10.50 6.60 13.65 10.20 13.65 2 0 1.45 0.90 -0.75 1.25 -2.45 0.40 -4.65 -0.05 -7.10 -1.45 l-1.85 -1.05 -1.15 1.05 c-0.65 0.60 -1.65 1.35 -2.25 1.65 -1.45 0.75 -6.95 0.65 -9.20 -0.20z m7.05 -13.45 c0 -0.65 -2.20 -5.80 -2.45 -5.80 -0.15 0 -0.75 1.20 -1.30 2.65 -0.55 1.40 -1.05 2.75 -1.15 3 -0.10 0.20 0.95 0.35 2.35 0.35 1.40 0 2.55 -0.10 2.55 -0.20z" data-index="43"></path>
  <path d="M212.80 201.75 c-3.35 -1.20 -6.30 -4.75 -8.25 -9.85 -0.50 -1.35 -0.70 -1.40 -3.75 -1.40 l-3.20 0 -0.75 1.90 c-0.70 1.65 -0.65 1.95 0.05 2.75 0.70 0.80 0.55 0.85 -2.70 0.85 -3.10 -0.05 -3.35 -0.10 -2.25 -0.70 0.80 -0.45 2.10 -2.80 4.35 -7.85 1.75 -3.95 3.20 -7.50 3.20 -7.85 0 -2.35 -2.85 -4.75 -5.05 -4.30 -1.15 0.25 -1.15 0.25 -0.25 -0.50 1.40 -1.15 5.20 -1 7.20 0.20 1.90 1.20 3.05 2.95 5.15 8 4.05 9.80 5.20 12.40 6.55 14.35 1.55 2.35 3.60 3.65 5.65 3.65 1.90 0 1.50 0.85 -0.60 1.20 -2.60 0.40 -3.10 0.35 -5.35 -0.45z m-9.40 -13.15 c-0.05 -0.20 -0.60 -1.55 -1.10 -3 -0.55 -1.45 -1.15 -2.60 -1.30 -2.60 -0.15 0 -0.75 1.15 -1.30 2.60 -0.50 1.45 -1 2.80 -1.10 3 -0.10 0.20 1 0.40 2.40 0.40 1.40 0 2.50 -0.20 2.40 -0.40z" data-index="44"></path>
  <path d="M151.10 198.15 c-3.30 -1.60 -4.80 -5.75 -3.30 -8.90 1.35 -2.90 2.20 -2.15 1.25 1.10 -0.35 1.30 -0.25 2.05 0.60 3.75 1.35 2.70 3.85 3.70 6.90 2.90 2.15 -0.60 2.95 -1.65 2.95 -3.90 0 -1.95 -1 -3.10 -5.25 -5.95 -4.40 -3.05 -5.50 -4.80 -4.75 -7.60 0.95 -3.55 4 -5 9.25 -4.30 l2.75 0.30 0 2.25 c0 1.20 -0.20 2.20 -0.50 2.20 -0.25 0 -0.50 -0.30 -0.50 -0.65 0 -2.05 -5.10 -3.30 -6.50 -1.65 -1.20 1.50 -0.35 3 3 5.20 6.25 4.15 8.15 6.85 7.30 10.30 -0.45 1.75 -2.50 4.05 -4.50 5 -2.15 1 -6.55 1 -8.70 -0.05z" data-index="45"></path>
  <path d="M75 195.70 c-4.75 -1.75 -7.50 -5.35 -7.50 -9.80 0 -4.95 3.70 -9.90 7.45 -9.90 1 0 1 0.05 -0.15 1.75 -2.15 3.15 -2.25 9.40 -0.20 13.40 2.55 5.10 9.10 5.05 12.10 -0.15 0.80 -1.35 1.05 -2.60 1 -5.50 0 -5.80 -2 -8.50 -6.20 -8.50 -2.55 0 -4 1.35 -4 3.70 0 2.05 -0.60 2.60 -1.55 1.50 -0.90 -1.10 0.35 -4.50 2.10 -5.85 4.20 -3.05 12.10 -0.40 14.50 4.90 2.20 4.75 0.60 10.15 -3.85 13.10 -2.45 1.65 -3.05 1.80 -7.05 1.95 -3.20 0.15 -5 0 -6.65 -0.60z" data-index="46" style="opacity: 1;"></path>
  <path d="M176 195.40 c-2.90 -1.50 -4.50 -3.90 -4.50 -6.70 0 -2.75 0.80 -2.85 1.25 -0.15 0.20 1.10 0.90 2.60 1.55 3.35 l1.15 1.35 0.05 -8.05 c0 -7.80 -0.05 -8.10 -1.10 -8.85 -1.10 -0.75 -0.90 -0.80 3.35 -0.80 5.25 -0.05 7.90 0.55 9.55 2.20 1.40 1.40 1.60 3.95 0.45 5.60 -0.70 1 -0.65 1.10 1.15 2 1.40 0.65 2 1.40 2.55 2.95 0.65 1.85 0.60 2.20 -0.25 4 -1.40 2.85 -3.55 3.85 -8.65 4.10 -3.75 0.15 -4.60 0 -6.55 -1z m7.55 -1.20 c0.85 -0.40 1.85 -1.50 2.25 -2.50 1 -2.40 -0.05 -4.95 -2.55 -5.95 -1.95 -0.85 -2.10 -1.15 -1 -1.95 0.45 -0.30 0.90 -1.40 1.05 -2.40 0.25 -1.55 0.10 -2.05 -1 -3.15 -0.70 -0.70 -1.50 -1.20 -1.70 -1.10 -0.20 0.15 -0.30 4.20 -0.20 9.05 0.15 9.65 0.15 9.60 3.15 8z" data-index="47" style="opacity: 1;"></path>
  <path d="M219.20 195.55 c-1.15 -0.50 -2.60 -1.70 -3.25 -2.60 -1.10 -1.60 -1.20 -2.20 -1.30 -8.90 -0.10 -4.45 -0.35 -7.45 -0.70 -7.85 -0.50 -0.60 0.10 -0.70 3.60 -0.70 3.65 0 4.05 0.10 3.20 0.70 -0.85 0.65 -0.95 1.30 -0.80 7.55 0.05 3.80 0.30 7.40 0.55 8 1 2.70 4.40 3.95 7.20 2.65 2.40 -1.05 2.80 -2.35 2.85 -9.30 0.05 -7.05 0.65 -10.70 2 -12.65 1.40 -2 6.95 -3.95 6.95 -2.45 0 0.30 -0.45 0.50 -0.95 0.50 -1.55 0 -3.80 2.25 -4.45 4.40 -0.35 1.10 -0.60 5.10 -0.60 9.15 0 6.20 -0.15 7.40 -0.95 8.75 -2.10 3.40 -8.85 4.80 -13.35 2.75z" data-index="48"></path>
  <path d="M95.25 195.50 c0.15 -0.25 0.65 -0.50 1.05 -0.50 0.60 0 0.70 -1.45 0.70 -8.70 0 -8.30 -0.05 -8.75 -1 -9.05 -1.90 -0.60 -1 -1.10 2.65 -1.50 11.10 -1.30 14.85 0.15 14.85 5.65 0 2.45 -0.90 4.05 -2.95 5.45 -2.30 1.55 -5.05 1.50 -6.90 -0.05 -1.40 -1.20 -1.35 -2.50 0.10 -1.30 1.95 1.65 5.25 -1.90 4.50 -4.90 -0.65 -2.75 -1.60 -3.60 -4 -3.60 l-2.25 0 0 8.75 c0 7.35 0.10 8.85 0.75 9.05 1.85 0.70 0.40 1.20 -3.55 1.20 -2.70 0 -4.15 -0.20 -3.95 -0.50z" data-index="49" style="opacity: 1;"></path>
 </g>
</svg>